<svg width="32" height="32" viewBox="0 0 32 32" fill="none" xmlns="http://www.w3.org/2000/svg">
<rect x="0.5" y="0.5" width="31" height="31" rx="6.5" fill="white" stroke="#F8F8F8"/>
<path d="M21.3975 11.5404L21.3971 11.54C21.0518 11.2161 20.6434 10.9576 20.1939 10.7797L20.1932 10.7794C19.7268 10.594 19.2259 10.4989 18.7196 10.5L18.7185 10.5C18.0066 10.5 17.3143 10.6865 16.7147 11.0365L16.7147 11.0366C16.5713 11.1202 16.4356 11.2119 16.3074 11.3114L16.0008 11.5493L15.6943 11.3114C15.566 11.2119 15.4303 11.1202 15.2869 11.0366L15.2869 11.0365C14.6873 10.6865 13.995 10.5 13.2831 10.5C12.7698 10.5 12.2751 10.5939 11.8083 10.7794L11.8078 10.7796C11.3565 10.9584 10.9516 11.2147 10.6043 11.5402L10.6036 11.5408L10.6036 11.5408C10.2592 11.8624 9.98527 12.2443 9.79632 12.6643L21.3975 11.5404ZM21.3975 11.5404C21.7418 11.8626 22.0159 12.2447 22.2056 12.6649M21.3975 11.5404L22.2056 12.6649M22.2056 12.6649C22.4019 13.1017 22.5014 13.563 22.5 14.0377V14.0392C22.5 14.4838 22.4051 14.959 22.2067 15.4553L22.2063 15.4564C22.0419 15.8706 21.7984 16.3108 21.4805 16.7648L22.2056 12.6649ZM12.611 19.0277L12.6111 19.0278C13.3455 19.6767 14.0783 20.2269 14.6364 20.62C14.915 20.8163 15.149 20.9726 15.3166 21.0818C15.4003 21.1363 15.4673 21.179 15.5147 21.2088C15.5385 21.2237 15.5572 21.2354 15.5706 21.2436C15.5819 21.2506 15.5879 21.2543 15.5896 21.2553C15.5901 21.2556 15.5902 21.2557 15.5901 21.2555L15.5979 21.2602L15.5979 21.2602L15.981 21.4953C15.981 21.4954 15.9811 21.4954 15.9811 21.4954C15.9848 21.4976 15.9913 21.5 16 21.5C16.0087 21.5 16.0152 21.4976 16.0189 21.4954C16.0189 21.4954 16.019 21.4954 16.019 21.4953L16.4021 21.2602L16.4022 21.2602C16.4557 21.2274 17.9153 20.3285 19.3891 19.0276C20.2758 18.2444 20.9774 17.4825 21.4804 16.7649L12.611 19.0277ZM12.611 19.0277C11.7244 18.2445 11.0228 17.4827 10.5197 16.7651L12.611 19.0277ZM9.5 14.0392C9.5 13.5633 9.59976 13.1013 9.7963 12.6643L9.79324 15.4552C9.59487 14.9589 9.5 14.4838 9.5 14.0392ZM10.5196 16.765C10.2024 16.3119 9.95978 15.8712 9.79326 15.4553L10.5196 16.765Z" stroke="#ECECEC"/>
</svg>
